<?xml version="1.0" encoding="iso-8859-1"?>
<!-- Generator: Adobe Illustrator 19.0.0, SVG Export Plug-In . SVG Version: 6.00 Build 0)  -->
<svg version="1.1" id="Capa_1" xmlns="http://www.w3.org/2000/svg" xmlns:xlink="http://www.w3.org/1999/xlink" x="0px" y="0px"
	 viewBox="0 0 327.682 327.682" style="enable-background:new 0 0 327.682 327.682;" xml:space="preserve">

<g>
	<g >
		<path fill="#444444"
          d="M225.908,234.951l-74.061-71.11l74.061-71.117c4-3.838,6.2-8.962,6.2-14.426c0-5.465-2.2-10.59-6.2-14.43
			c-8.067-7.743-21.187-7.745-29.254,0.002l-98.98,95.049c-1.34,1.287-2.099,3.065-2.099,4.924c0,1.859,0.759,3.637,2.099,4.924
			l98.98,95.051c4.033,3.871,9.327,5.806,14.626,5.806c5.299,0,10.593-1.935,14.628-5.809c4-3.837,6.2-8.958,6.2-14.421
			c0-5.466-2.2-10.595-6.193-14.437C225.915,234.954,225.908,234.952,225.908,234.951z M216.451,253.966
			c-2.799,2.693-7.545,2.691-10.346,0.002l-93.853-90.127l93.851-90.127c2.799-2.693,7.545-2.691,10.346-0.002
			c1.287,1.241,2,2.867,2,4.582c0,1.714-0.713,3.338-2,4.579l-79.186,76.044c-1.34,1.287-2.099,3.065-2.099,4.924
			c0,1.859,0.759,3.637,2.099,4.925l79.181,76.03c1.294,1.244,2.007,2.874,2.007,4.591
			C218.452,251.101,217.738,252.727,216.451,253.966z"/>
	</g>
</g>


</svg>
