<?xml version="1.0" encoding="utf-8"?>
<svg viewBox="0 0 500 500" xmlns="http://www.w3.org/2000/svg">
  <g>
    <title>Outer ring</title>
    <path d="M 284.248 8.163 L 371.925 117.311 C 404.556 150.243 423.209 194.733 423.234 242.3 C 423.192 310.808 386.074 366.598 334.169 396.565 C 282.264 426.532 215.369 430.819 156.039 396.565 C 131.112 382.174 110.817 362.777 95.728 339.359 L 7.939 229.677 C 7.716 233.866 7.604 238.075 7.604 242.3 C 7.604 333.66 57.133 408.016 126.354 447.981 C 195.575 487.946 284.734 493.661 363.854 447.981 C 437.29 405.583 482.604 327.097 482.604 242.3 C 482.604 150.94 433.075 76.584 363.854 36.619 C 339.517 22.568 312.212 13.002 284.248 8.163" style="fill: rgb(71, 200, 255);" transform="matrix(-0.994238, 0.107194, -0.107194, -0.994238, 514.966983, 460.616109)"/>
    <path d="M 489.64 255.263 L 402.474 146.701 C 350.902 137.777 295.866 145.575 244.563 175.195 C 174.786 215.481 130.476 288.544 126.226 368.449 L 213.339 477.298 C 195.094 448.983 185.202 415.679 185.183 380.876 C 185.225 312.368 222.343 256.578 274.248 226.611 C 326.153 196.644 393.048 192.357 452.378 226.611 C 466.251 234.621 478.651 244.172 489.64 255.263" style="fill: rgb(45, 140, 218);" transform="matrix(-0.994238, 0.107194, -0.107194, -0.994238, 647.349672, 585.722332)"/>
  </g>
  <g style="pointer-events: none;">
    <title>circle with 'i'</title>
    <ellipse style="fill: rgb(45, 140, 218); paint-order: stroke;" cx="245.35" cy="248.086" rx="147.81" ry="147.81"/>
    <rect style="stroke-linejoin: round; stroke-width: 0px; stroke-linecap: round; fill: rgb(255, 255, 255);" x="229.928" y="188.869" width="30.109" height="160.584" rx="15.1" ry="15.1"/>
    <ellipse style="fill: rgb(255, 255, 255);" cx="246.025" cy="158.263" rx="15.055" ry="15.055"/>
  </g>
</svg>